<?xml version="1.0" encoding="utf-8"?>
<!-- Svg Vector Icons : http://www.onlinewebfonts.com/icon -->
<!DOCTYPE svg PUBLIC "-//W3C//DTD SVG 1.1//EN" "http://www.w3.org/Graphics/SVG/1.1/DTD/svg11.dtd">
<svg version="1.1" xmlns="http://www.w3.org/2000/svg" xmlns:xlink="http://www.w3.org/1999/xlink" x="0px" y="0px" fill="fff " viewBox="0 0 1000 1000" enable-background="new 0 0 1000 1000" xml:space="preserve">
<metadata> Svg Vector Icons : http://www.onlinewebfonts.com/icon </metadata>
<g><g transform="translate(0.000000,511.000000) scale(0.100000,-0.100000)"><path d="M7013.1,4659.3c-44-21-95.6-61.2-114.7-89.9S6403.3,3732,5839.3,2776.1L4812.6,1034.4l346-5.7c189.3-1.9,351.8,1.9,359.4,9.6c7.6,9.6,443.5,741.8,965.5,1630.8c856.5,1453,952.1,1625,959.7,1711.1c5.7,76.5-1.9,109-38.2,160.6C7307.6,4684.1,7162.3,4728.1,7013.1,4659.3z"/><path d="M8661.1,3626.9c-51.6-32.5-2726.3-2407-2867.7-2546.6l-57.4-55.4l458.8,1.9h458.8L7839.1,2084C8491,2665.2,9043.5,3170,9068.4,3204.4c87.9,130,42.1,336.5-95.6,420.6C8890.6,3674.7,8739.5,3676.6,8661.1,3626.9z"/><path d="M113.4,170.3c22.9-458.8,97.5-856.5,240.9-1286.7C599-1858.2,987.1-2491,1541.5-3045.4c774.3-774.3,1724.5-1240.8,2856.3-1401.4c225.6-32.5,978.9-32.5,1204.5,0c579.3,82.2,1057.2,227.5,1548.6,470.3c523.8,260,881.3,512.4,1288.6,915.8c411,407.2,686.3,789.6,950.2,1323c302.1,609.9,460.8,1223.6,497.1,1908l13.4,242.8H5000H100L113.4,170.3z M9217.5-301.9c-24.8-187.4-143.4-604.2-244.7-860.3l-101.3-250.5H5000H1128.6l-99.4,248.5c-99.4,244.7-219.9,673-246.6,866.1l-13.4,99.4H5000h4229L9217.5-301.9z M8487.2-2057c-59.3-103.2-302.1-388.1-485.6-569.7c-650-648.1-1437.7-1043.8-2380.2-1198.7c-294.4-47.8-948.3-47.8-1242.7,0c-940.6,154.9-1730.2,550.6-2382.1,1198.7c-181.6,181.6-422.5,464.6-483.7,569.7c-11.5,17.2,692.1,22.9,3487.2,22.9S8498.6-2039.8,8487.2-2057z"/></g></g>
</svg>